<svg data-v-6805eed4="" version="1.0" xmlns="http://www.w3.org/2000/svg" xmlns:xlink="http://www.w3.org/1999/xlink" width="100%" height="100%" viewBox="0 0 340.000000 250.000000" preserveAspectRatio="xMidYMid meet" color-interpolation-filters="sRGB" style="margin: auto;"><g data-v-6805eed4="" fill="#0f0f0f" class="iconlinesvg-g iconlinesvg" transform="translate(74.43397283554077,95.75687599182129)"><g class="tp-name" transform="translate(0,0)"><g transform="translate(0, 0)"><g data-gra="path-name" fill="#0f0f0f" transform="scale(1)"><path d="M22.99-17.04C25.67-18.27 27.76-21.05 27.76-24.76C27.76-25.79 27.58-26.82 27.22-27.83C26.23-30.64 23.92-33.24 20.18-33.24L4.17-33.24L4.17 0L19.85 0C21.13 0 22.33-0.21 23.45-0.63C26.51-1.78 29.17-4.44 29.17-8.57C29.17-12.92 26.48-16.01 22.99-17.04ZM25.89-9.13C25.89-8.32 25.73-7.53 25.42-6.76C24.58-4.71 22.68-2.86 19.85-2.86L7.44-2.86L7.44-15.45L20.18-15.45C20.99-15.45 21.75-15.27 22.45-14.91C24.36-13.93 25.89-11.96 25.89-9.13ZM7.44-30.38L19.15-30.38C19.93-30.38 20.64-30.22 21.30-29.89C23.17-28.95 24.53-27.02 24.53-24.25C24.53-20.88 22.24-18.12 18.87-18.12L7.44-18.12Z" transform="translate(-4.166449934980494, 34.174252275682704)"></path></g></g><g transform="translate(29, 7.374450383980509)"><g><g class="imagesvg"><g><rect fill="#0f0f0f" fill-opacity="0" stroke-width="2" x="0" y="0" width="34.820363464412246" height="29.864883367279553" class="image-rect"></rect> <svg x="0" y="0" width="34.820363464412246" height="29.864883367279553" filtersec="colorsb6827702338" class="image-svg-svg primary" style="overflow: visible;"><svg xmlns="http://www.w3.org/2000/svg" viewBox="0.7392743825912476 1.189642071723938 98.59187316894531 84.56035614013672"><path fill="#0F0F0F" d="M99.04 66.17L51.58 1.79c-.27-.37-.7-.59-1.16-.6-.46-.01-.9.19-1.19.55L1.07 61.44c-.28.35-.39.8-.3 1.24.09.44.38.81.77 1.01l42.64 21.9c.21.11.44.16.68.16.15 0 .31-.02.46-.07L98.3 68.46c.45-.15.81-.5.95-.96.16-.45.08-.94-.21-1.33zM49.24 6.45l-5.13 75.77L4.52 61.88 49.24 6.45zm-3.36 75.93l5.17-76.32 44.39 60.22-49.56 16.1z"></path></svg></svg> <!----></g></g></g></g><g transform="translate(67, 0)"><g data-gra="path-name" fill="#0f0f0f" transform="scale(1)"><path d="M6.69-19.29L6.69-34.17L3.51-34.17L3.51 0L6.37 0L6.37-4.73C7.99-1.98 11.26 0.47 15.45 0.47C17.07 0.47 18.59 0.13 20.01-0.54C23.95-2.40 27.01-6.44 27.01-12.12C27.01-13.72 26.75-15.27 26.24-16.78C24.80-21.00 21.54-24.81 15.96-24.81C11.46-24.81 8.61-22.19 6.69-19.29ZM14.70-2.34C13.89-2.34 13.04-2.50 12.15-2.81C9.71-3.66 7.11-5.51 6.69-8.33L6.69-15.92C8.08-18.91 10.75-22.00 15.07-22.00C16.35-22.00 17.53-21.73 18.61-21.18C21.55-19.69 23.78-16.47 23.78-12.12C23.78-10.88 23.56-9.67 23.10-8.50C21.85-5.26 19.12-2.34 14.70-2.34Z" transform="translate(-3.5110533159947983, 34.174252275682704)"></path></g></g><g transform="translate(94, 0)"><g data-gra="path-name" fill="#0f0f0f" transform="scale(1)"><path d="M4.92 7.49L4.92 10.30C5.65 10.41 6.07 10.44 6.83 10.44C9.50 10.44 11.08 8.95 11.80 7.07L24.44-24.39L21.39-24.39L13.01-2.95L3.98-24.39L0.70-24.39L11.33 0C10.22 2.59 9.72 4.43 8.61 6.32C8.06 7.26 7.65 7.58 6.32 7.58C5.83 7.58 5.37 7.55 4.92 7.49Z" transform="translate(-0.7022106631989595, 34.174252275682704)"></path></g></g><g transform="translate(121, 0)"><g data-gra="path-name" fill="#0f0f0f" transform="scale(1)"><path d="" transform="translate(0, 34.174252275682704)"></path></g></g><g transform="translate(135, 0)"><g data-gra="path-name" fill="#0f0f0f" transform="scale(1)"><path d="M14.47-33.24L0.56 0L4.07 0L8.33-10.39L23.27-10.39L27.57 0L31.04 0L17.23-33.24ZM22.52-12.97L9.04-12.97L15.82-29.40Z" transform="translate(-0.5617685305591676, 34.174252275682704)"></path></g></g><g transform="translate(169, 0)"><g data-gra="path-name" fill="#0f0f0f" transform="scale(1)"><path d="M8.38 0.28C9.75 0.28 11.78-0.14 12.78-0.56L12.22-3.14C11.56-2.88 10.52-2.62 9.69-2.62C7.88-2.62 6.83-3.72 6.83-5.52L6.83-34.17L3.65-34.17L3.65-4.45C3.65-1.48 5.43 0.28 8.38 0.28Z" transform="translate(-3.65149544863459, 34.174252275682704)"></path></g></g><g transform="translate(182, 0)"><g data-gra="path-name" fill="#0f0f0f" transform="scale(1)"><path d="M8.38 0.28C9.75 0.28 11.78-0.14 12.78-0.56L12.22-3.14C11.56-2.88 10.52-2.62 9.69-2.62C7.88-2.62 6.83-3.72 6.83-5.52L6.83-34.17L3.65-34.17L3.65-4.45C3.65-1.48 5.43 0.28 8.38 0.28Z" transform="translate(-3.65149544863459, 34.174252275682704)"></path></g></g></g> <g data-gra="path-slogan" fill-rule="" class="tp-slogan" fill="#0f0f0f" transform="translate(5.000007629394531,50.6099967956543)"><rect x="0" height="1" y="3.434999942779541" width="64.20747756958008"></rect> <rect height="1" y="3.434999942779541" width="64.20747756958008" x="116.91747665405273"></rect> <g transform="translate(67.20747756958008,0)"><g transform="scale(1)"><path d="M2.71-7.03L2.71 0L3.72 0L3.72-7.03L6.10-7.03L6.10-7.87L0.34-7.87L0.34-7.03ZM7.51-7.87L7.51 0L8.51 0L8.51-3.71L12.17-3.71L12.17 0L13.18 0L13.18-7.87L12.17-7.87L12.17-4.57L8.51-4.57L8.51-7.87ZM15.34-7.87L15.34 0L19.99 0L19.99-0.85L16.33-0.85L16.33-3.71L19.32-3.71L19.32-4.56L16.33-4.56L16.33-7.03L19.87-7.03L19.87-7.87ZM25.72-7.03L25.72 0L26.72 0L26.72-7.03L29.10-7.03L29.10-7.87L23.34-7.87L23.34-7.03ZM30.52-7.87L30.52 0L31.51 0L31.51-7.87ZM33.67-7.87L33.67 0L34.60 0L34.60-4.33C34.60-4.68 34.58-5.07 34.55-5.50C34.52-5.92 34.49-6.31 34.46-6.66L34.51-6.66L35.14-4.91L36.66-0.79L37.22-0.79L38.74-4.91L39.37-6.66L39.42-6.66C39.39-6.31 39.36-5.92 39.33-5.50C39.30-5.07 39.29-4.68 39.29-4.33L39.29 0L40.24 0L40.24-7.87L39.06-7.87L37.55-3.65L37.00-2.04L36.95-2.04L36.37-3.65L34.85-7.87ZM42.40-7.87L42.40 0L47.05 0L47.05-0.85L43.39-0.85L43.39-3.71L46.38-3.71L46.38-4.56L43.39-4.56L43.39-7.03L46.93-7.03L46.93-7.87Z" transform="translate(-0.336, 7.872)"></path></g></g></g></g><defs v-gra="od"></defs></svg>